<mxfile host="app.diagrams.net" modified="2023-06-08T10:29:00.579Z" agent="Mozilla/5.0 (Windows NT 10.0; Win64; x64) AppleWebKit/537.36 (KHTML, like Gecko) Chrome/114.0.0.0 Safari/537.36" etag="wFxHr3GX97yl5XDvJXys" version="21.3.5" type="device">
  <diagram name="Page-1" id="FPRs1izgxFS3ZRZsDlzw">
    <mxGraphModel dx="1750" dy="902" grid="1" gridSize="10" guides="1" tooltips="1" connect="1" arrows="1" fold="1" page="1" pageScale="1" pageWidth="850" pageHeight="1100" math="0" shadow="0">
      <root>
        <mxCell id="0" />
        <mxCell id="1" parent="0" />
        <mxCell id="pEmt60M8Cesz5g8m0G3L-8" value="" style="edgeStyle=orthogonalEdgeStyle;rounded=0;orthogonalLoop=1;jettySize=auto;html=1;" edge="1" parent="1" source="pEmt60M8Cesz5g8m0G3L-1" target="pEmt60M8Cesz5g8m0G3L-2">
          <mxGeometry relative="1" as="geometry" />
        </mxCell>
        <mxCell id="pEmt60M8Cesz5g8m0G3L-1" value="Dataset" style="shape=cylinder3;whiteSpace=wrap;html=1;boundedLbl=1;backgroundOutline=1;size=15;" vertex="1" parent="1">
          <mxGeometry x="380" y="100" width="90" height="80" as="geometry" />
        </mxCell>
        <mxCell id="pEmt60M8Cesz5g8m0G3L-9" value="" style="edgeStyle=orthogonalEdgeStyle;rounded=0;orthogonalLoop=1;jettySize=auto;html=1;" edge="1" parent="1" source="pEmt60M8Cesz5g8m0G3L-2" target="pEmt60M8Cesz5g8m0G3L-3">
          <mxGeometry relative="1" as="geometry" />
        </mxCell>
        <mxCell id="pEmt60M8Cesz5g8m0G3L-2" value="Seleksi Data" style="html=1;dashed=0;whiteSpace=wrap;" vertex="1" parent="1">
          <mxGeometry x="375" y="220" width="100" height="50" as="geometry" />
        </mxCell>
        <mxCell id="pEmt60M8Cesz5g8m0G3L-10" value="" style="edgeStyle=orthogonalEdgeStyle;rounded=0;orthogonalLoop=1;jettySize=auto;html=1;" edge="1" parent="1" source="pEmt60M8Cesz5g8m0G3L-3" target="pEmt60M8Cesz5g8m0G3L-4">
          <mxGeometry relative="1" as="geometry" />
        </mxCell>
        <mxCell id="pEmt60M8Cesz5g8m0G3L-3" value="Lowercasing" style="html=1;dashed=0;whiteSpace=wrap;" vertex="1" parent="1">
          <mxGeometry x="375" y="310" width="100" height="50" as="geometry" />
        </mxCell>
        <mxCell id="pEmt60M8Cesz5g8m0G3L-11" value="" style="edgeStyle=orthogonalEdgeStyle;rounded=0;orthogonalLoop=1;jettySize=auto;html=1;" edge="1" parent="1" source="pEmt60M8Cesz5g8m0G3L-4" target="pEmt60M8Cesz5g8m0G3L-5">
          <mxGeometry relative="1" as="geometry" />
        </mxCell>
        <mxCell id="pEmt60M8Cesz5g8m0G3L-4" value="Pembersihan Karakter Khusus" style="html=1;dashed=0;whiteSpace=wrap;" vertex="1" parent="1">
          <mxGeometry x="375" y="400" width="100" height="50" as="geometry" />
        </mxCell>
        <mxCell id="pEmt60M8Cesz5g8m0G3L-12" value="" style="edgeStyle=orthogonalEdgeStyle;rounded=0;orthogonalLoop=1;jettySize=auto;html=1;" edge="1" parent="1" source="pEmt60M8Cesz5g8m0G3L-5" target="pEmt60M8Cesz5g8m0G3L-7">
          <mxGeometry relative="1" as="geometry" />
        </mxCell>
        <mxCell id="pEmt60M8Cesz5g8m0G3L-5" value="Pembersihan Karakter Non-Alphanumeric" style="html=1;dashed=0;whiteSpace=wrap;" vertex="1" parent="1">
          <mxGeometry x="375" y="490" width="100" height="50" as="geometry" />
        </mxCell>
        <mxCell id="pEmt60M8Cesz5g8m0G3L-6" value="Stopword Removal" style="html=1;dashed=0;whiteSpace=wrap;" vertex="1" parent="1">
          <mxGeometry x="375" y="570" width="100" height="50" as="geometry" />
        </mxCell>
        <mxCell id="pEmt60M8Cesz5g8m0G3L-14" value="" style="edgeStyle=orthogonalEdgeStyle;rounded=0;orthogonalLoop=1;jettySize=auto;html=1;" edge="1" parent="1" source="pEmt60M8Cesz5g8m0G3L-7" target="pEmt60M8Cesz5g8m0G3L-13">
          <mxGeometry relative="1" as="geometry" />
        </mxCell>
        <mxCell id="pEmt60M8Cesz5g8m0G3L-7" value="Lemmatization" style="html=1;dashed=0;whiteSpace=wrap;" vertex="1" parent="1">
          <mxGeometry x="375" y="650" width="100" height="50" as="geometry" />
        </mxCell>
        <mxCell id="pEmt60M8Cesz5g8m0G3L-13" value="Dataset" style="shape=cylinder3;whiteSpace=wrap;html=1;boundedLbl=1;backgroundOutline=1;size=15;" vertex="1" parent="1">
          <mxGeometry x="380" y="730" width="90" height="80" as="geometry" />
        </mxCell>
      </root>
    </mxGraphModel>
  </diagram>
</mxfile>
